<?xml version="1.0" encoding="utf-8"?>
<!-- Generator: Adobe Illustrator 28.2.0, SVG Export Plug-In . SVG Version: 6.00 Build 0)  -->
<svg version="1.1" id="Layer_1" xmlns="http://www.w3.org/2000/svg" xmlns:xlink="http://www.w3.org/1999/xlink" x="0px" y="0px"
	 viewBox="0 0 81.5 25.2" style="enable-background:new 0 0 81.5 25.2;" xml:space="preserve">
<style type="text/css">
	.st0{fill:#FFFFFF;}
	.st1{fill:#E71C39;}
</style>
<g>
	<g>
		<path class="st0" d="M20.6,12.1c0,0.5,0.1,1.1,0.2,1.8c-0.7,0-1.3,0.1-2,0.1c0-0.2-0.1-0.4-0.1-0.5c0-0.1-0.1-0.2-0.2-0.2
			c-0.1-0.1-0.1-0.1-0.2-0.1c-0.2-0.1-0.4-0.1-0.7-0.1c-0.3,0-0.6,0-0.9,0.1c0,1,0,1.9,0,2.6c0.5,0,1.1-0.1,1.6-0.1
			c0,0.9,0,1.8,0,2.7c-0.5,0.1-1.1,0.1-1.6,0.2c0,0.8,0,1.2,0,1.9c0,0.3,0.1,0.6,0.1,0.8c0.1,0.2,0.2,0.4,0.3,0.5
			c0.1,0.1,0.3,0.1,0.6,0.1c0,1,0,1.5,0,2.4c-0.8,0-1.5,0.1-2.1,0.2c-0.6,0.1-1.4,0.4-2.3,0.7c0-1,0-1.6,0-2.6
			c0.3-0.1,0.5-0.2,0.6-0.3c0.1-0.2,0.2-0.4,0.3-0.7c0.1-0.3,0.1-0.6,0.1-0.9c0.1-0.9,0-1.5-0.1-2c-0.1-0.5-0.4-0.9-1-1.2
			c0.4-0.3,0.7-0.7,0.9-1.1c0.2-0.4,0.2-0.9,0.2-1.6c0-0.4,0-0.8-0.1-1.1c0-0.3-0.1-0.5-0.2-0.6c-0.1-0.1-0.4-0.2-0.7-0.2
			c0-1,0-1.6,0-2.6c0.5,0.1,1.2,0.2,2.1,0.3c0.8,0.1,1.7,0.1,2.7,0.1c0.9,0,1.8-0.2,2.6-0.4C20.6,10.9,20.6,11.6,20.6,12.1z"/>
		<path class="st0" d="M22.1,15.6c0.2-0.3,0.2-0.8,0.2-1.4c0-0.5,0-0.8,0-1.1c0-0.3-0.1-0.4-0.1-0.5c-0.1-0.1-0.3-0.1-0.6-0.1
			c0-0.9,0-1.4,0-2.3c1.4,0.3,2.7,0.3,4.1,0c0,0.9,0,1.3,0,2.2c-0.2,0-0.3,0-0.4,0.1c-0.1,0-0.2,0.1-0.2,0.2c0,0.1-0.1,0.2-0.1,0.3
			c0,0.1,0,0.3,0,0.5c0,0.2,0,0.4,0,0.7c0,0.6,0,1,0.2,1.4c0.2,0.3,0.5,0.6,0.9,0.8c-0.5,0.3-0.8,0.7-0.9,1.1
			c-0.1,0.4-0.2,0.9-0.2,1.3c0,0.5,0.1,1,0.1,1.5c0.4,0,0.6-0.1,1.1-0.1c0.3,0,0.4,0,0.5-0.1c0.1,0,0.1-0.1,0.2-0.2
			c0-0.1,0.1-0.3,0.2-0.6c0.1-0.3,0.2-0.6,0.2-0.9c0.6,0,1.3-0.1,1.9-0.1c-0.3,1.4-0.3,2.8-0.3,4.2c-1.1-0.1-2.3-0.1-3.4,0.1
			c-1.2,0.1-2.3,0.4-3.4,0.8c0.2-1.3,0.3-2.6,0.4-3.9c0-0.5,0.1-0.9,0-1.2c0-0.4-0.1-0.7-0.3-0.9c-0.2-0.3-0.4-0.5-0.8-0.8
			C21.7,16.3,22,16,22.1,15.6z"/>
		<path class="st0" d="M36.7,10.7c0.6,0.3,1.1,0.8,1.5,1.3c0.5,0.7,0.8,1.6,1,2.7c0.1,0.4,0.2,0.7,0.3,1c0.2,0.2,0.4,0.4,0.7,0.6
			c-0.4,0.2-0.6,0.5-0.8,0.7c-0.2,0.3-0.3,0.6-0.4,1.1c-0.2,0.8-0.5,1.6-0.9,2.1c-0.4,0.6-0.9,1-1.5,1.3c-0.6,0.3-1.2,0.5-1.8,0.6
			c-0.6,0-1.3-0.1-1.8-0.4c-0.6-0.3-1.1-0.7-1.5-1.2c-0.4-0.5-0.6-1.1-0.8-1.8c-0.1-0.4-0.2-0.7-0.2-1c-0.1-0.2-0.2-0.5-0.3-0.6
			c-0.1-0.2-0.4-0.4-0.7-0.5c0.3-0.2,0.5-0.4,0.7-0.7c0.2-0.3,0.3-0.6,0.4-0.9c0.1-1.2,0.5-2.2,1-2.9c0.4-0.6,0.9-1,1.5-1.3
			c0.6-0.3,1.2-0.5,1.8-0.5S36.2,10.4,36.7,10.7z M36.1,15.8c0.2-0.1,0.3-0.3,0.4-0.5c0.1-0.2,0.1-0.4,0-0.8
			c-0.1-0.8-0.4-1.4-0.6-1.7c-0.3-0.4-0.6-0.6-1-0.5c-0.3,0-0.7,0.2-1,0.7c-0.3,0.4-0.5,1-0.7,1.9c-0.1,0.4,0,0.7,0.1,0.9
			c0.2,0.2,0.4,0.3,0.7,0.5c-0.3,0.2-0.5,0.3-0.6,0.4c-0.1,0.1-0.2,0.3-0.3,0.4c0,0.2,0,0.4,0,0.8c0.2,1.1,0.5,1.8,0.9,2.1
			c0.4,0.3,0.9,0.3,1.3,0c0.4-0.4,0.8-1.1,1-2.1c0.1-0.4,0.1-0.6,0-0.8c-0.1-0.2-0.2-0.3-0.3-0.5c-0.2-0.1-0.4-0.2-0.6-0.4
			C35.8,16.1,36,15.9,36.1,15.8z"/>
		<path class="st0" d="M45.2,19c0.3,0.2,0.6,0.4,0.9,0.5c1,0.3,2,0,2.9-1c0.4,0.8,0.5,1.1,0.9,1.9c-0.9,0.8-1.9,1.3-2.7,1.5
			c-0.9,0.2-1.7,0.1-2.4-0.2c-0.7-0.3-1.4-0.8-1.9-1.5c-0.5-0.7-0.9-1.5-1.1-2.4c-0.1-0.4-0.1-0.6-0.2-0.8c0-0.1-0.1-0.2-0.2-0.3
			c-0.1-0.1-0.3-0.2-0.7-0.4c0.4-0.2,0.6-0.3,0.7-0.4c0.1-0.1,0.2-0.2,0.2-0.3c0-0.1,0.1-0.4,0.1-0.8c0.1-0.6,0.3-1.2,0.5-1.8
			c0.4-0.9,0.9-1.5,1.6-1.9c0.6-0.4,1.3-0.7,2-0.7c0.7,0,1.4,0.1,2,0.5c0.1,0.1,0.2,0.1,0.3,0.2c0.1,0,0.1,0,0.2-0.1
			c0-0.1,0.1-0.2,0.1-0.4c0.7,0,1,0,1.7,0c0,1.7,0,2.5,0,4.2c-0.7,0-1,0-1.7,0c-0.1-0.6-0.3-1.1-0.6-1.4c-0.3-0.3-0.6-0.5-0.9-0.5
			c-0.3,0-0.6,0-1,0.2c-0.6,0.3-1.1,0.9-1.4,1.8c-0.1,0.2-0.1,0.4-0.1,0.5c0,0.1,0,0.3,0,0.3c0,0.1,0.1,0.2,0.1,0.2
			c0.1,0.1,0.2,0.1,0.3,0.2c0.1,0.1,0.2,0.1,0.4,0.2c0.1,0.1,0.3,0.2,0.4,0.2c-0.2,0.1-0.3,0.2-0.5,0.3c-0.1,0.1-0.3,0.1-0.4,0.2
			c-0.1,0.1-0.2,0.1-0.2,0.2c-0.1,0.1-0.1,0.2-0.1,0.3c0,0.1,0.1,0.3,0.2,0.5C44.7,18.4,44.9,18.7,45.2,19z"/>
		<path class="st0" d="M51.5,15.2c0.2-0.3,0.2-0.7,0.2-1.3c0-0.2,0-0.5,0-0.7c0-0.2,0-0.4-0.1-0.5c-0.1-0.1-0.1-0.2-0.3-0.3
			c-0.1-0.1-0.3-0.1-0.6-0.1c0-0.7,0-1.4,0-2.1c0.7,0.2,1.5,0.3,2.2,0.3c0.7,0,1.4-0.1,2.1-0.3c0,0.7,0,1.5,0,2.2
			c-0.3,0-0.5,0-0.7,0.2c-0.1,0.1-0.2,0.3-0.2,0.5c0,0.1,0,0.7,0,1.7c0.5-0.6,1.1-1.3,1.6-1.9c0.1-0.1,0.2-0.3,0.2-0.4
			c0-0.1-0.1-0.1-0.3-0.1c0-0.7,0-1.5,0-2.2c1.2,0.3,2.3,0.3,3.6,0c0,0.8,0,1.5,0,2.3c-0.3,0-0.6,0-0.8,0.1
			c-0.2,0.1-0.4,0.3-0.6,0.6c-0.7,0.9-1.3,1.8-2,2.7c0.8,0.3,1.4,0.8,1.9,1.5c0.5,0.7,0.8,1.6,1,2.7c0,0.2,0.1,0.3,0.1,0.4
			c0,0.1,0.1,0.2,0.1,0.3c0,0.1,0.1,0.1,0.2,0.2c0.1,0,0.2,0.1,0.4,0.1c0,0.8,0,1.5,0,2.3c-1.2-0.4-2.4-0.6-3.6-0.5
			c0-0.7,0-1.5,0-2.2c0.1,0,0.2,0,0.3,0c0.1,0,0.1-0.1,0.1-0.2c0-0.1,0-0.2,0-0.3c0-0.1,0-0.2-0.1-0.3c-0.1-0.5-0.3-1-0.6-1.3
			c-0.3-0.3-0.7-0.5-1.3-0.6c0,0,0,0,0,0c0,1,0,1.6,0,1.8c0,0.3,0.1,0.5,0.2,0.6c0.1,0.1,0.4,0.2,0.7,0.3c0,0.7,0,1.5,0,2.2
			c-1.5-0.5-2.9-0.6-4.3-0.4c0-0.7,0-1.4,0-2.1c0.3,0,0.5,0,0.6-0.1c0.1-0.1,0.2-0.3,0.2-0.5c0-0.2,0-0.5,0.1-0.8c0-0.3,0-0.6,0-0.9
			c0-0.3,0-0.5-0.1-0.7c-0.1-0.2-0.2-0.4-0.3-0.6c-0.2-0.2-0.4-0.4-0.7-0.6C51.1,15.8,51.4,15.5,51.5,15.2z"/>
		<path class="st0" d="M65.7,18.6c0.1,0.6,0.2,1.1,0.5,1.5c0.2,0.4,0.5,0.8,0.9,1.1s0.8,0.5,1.3,0.6c0,0.9,0,2,0,3.5
			c-0.8-0.1-1.5-0.4-2.1-0.7c-0.5-0.3-0.9-0.7-1.2-1.2c-0.3-0.5-0.5-1.1-0.7-1.8c-0.1-0.7-0.3-1.6-0.4-2.6c-0.3,0-0.5,0-0.8,0.1
			c0,1.3,0,1.8,0,1.6c0,0.1,0,0.2,0,0.3c0,0.1,0,0.2,0.1,0.2c0,0.1,0,0.1,0.1,0.2c0,0.1,0.1,0.1,0.1,0.2c0,0,0.1,0.1,0.2,0.1
			c0.1,0,0.1,0.1,0.2,0.1c0.1,0,0.2,0,0.3,0.1c0,1,0,1.5,0,2.4c-1.5-0.6-2.9-0.9-4.3-0.8c0-0.9,0-1.4,0-2.3c0.2,0,0.4,0,0.5,0
			c0.1,0,0.2-0.1,0.3-0.3c0.1-0.1,0.1-0.3,0.1-0.5c0-0.2,0-0.4,0-0.7c0-0.5,0-0.9,0-1.3c0-0.4-0.1-0.7-0.3-1
			c-0.2-0.3-0.4-0.6-0.8-0.9c0.4-0.2,0.7-0.5,0.9-0.8c0.2-0.3,0.2-0.8,0.2-1.4c0-0.4,0-0.7-0.1-0.9c0-0.3-0.1-0.5-0.2-0.6
			c-0.1-0.1-0.4-0.2-0.7-0.2c0-0.9,0-1.4,0-2.3c2.2,0,3.2,0,5.4,0c0.5,0,1,0.2,1.4,0.6c0.4,0.4,0.7,0.9,0.9,1.5
			c0.2,0.6,0.4,1.3,0.4,2c0.1,0.7,0,1.4-0.1,2c-0.1,0.6-0.4,1.2-0.7,1.6C66.8,18.2,66.3,18.5,65.7,18.6z M63.2,16.8
			c0.4,0,0.7,0,1.1,0c0.3,0,0.6-0.2,0.8-0.5c0.2-0.3,0.3-0.8,0.3-1.4c0-0.7-0.2-1.3-0.6-1.7c-0.3-0.4-0.7-0.6-1-0.5
			c-0.3,0.1-0.6,0.4-0.6,1C63.2,14,63.2,15.1,63.2,16.8z"/>
	</g>
</g>
<g>
	<g>
		<path class="st1" d="M0,0c1.9,0.5,3,1.8,3.4,3.7C3.7,4.8,3.7,5.9,3.6,7c-0.3,3.8,1.1,5.5,5,6C9.3,13,10,13.1,10.8,13
			c1.4-0.2,1.5,0.7,1.6,1.6c0.1,1,0,1.8-1.3,1.9c-2.2,0.2-4.3,0-6.3-1C1.9,14.2,0.6,12,0.9,8.8c0.1-1,0.3-2.1,0.4-3.1
			C1.5,3.7,1.3,1.7,0,0z"/>
		<path class="st1" d="M81.5,0c-1.9,0.5-3,1.8-3.4,3.7c-0.2,1.1-0.3,2.2-0.2,3.3c0.3,3.8-1.1,5.5-5,6c-0.7,0.1-1.5,0.2-2.2,0.1
			c-1.4-0.2-1.5,0.7-1.6,1.6c-0.1,1,0,1.8,1.3,1.9c2.2,0.2,4.3,0,6.3-1c2.9-1.4,4.1-3.6,3.9-6.8c-0.1-1-0.3-2.1-0.4-3.1
			C80,3.7,80.3,1.7,81.5,0z"/>
	</g>
</g>
</svg>
