<?xml version="1.0" encoding="utf-8"?>
<!-- Generator: Adobe Illustrator 28.2.0, SVG Export Plug-In . SVG Version: 6.00 Build 0)  -->
<svg version="1.1" id="Layer_1" xmlns="http://www.w3.org/2000/svg" xmlns:xlink="http://www.w3.org/1999/xlink" x="0px" y="0px"
	 viewBox="0 0 97.1 25" style="enable-background:new 0 0 97.1 25;" xml:space="preserve">
<style type="text/css">
	.st0{fill:#161616;}
	.st1{fill:#E31B38;}
</style>
<g>
	<g>
		<g>
			<path class="st0" d="M24.5,11.2c0,0.5,0.1,1.2,0.2,1.9c-0.8,0-1.6,0.1-2.3,0.1c-0.1-0.2-0.1-0.4-0.2-0.5s-0.1-0.2-0.2-0.3
				s-0.2-0.1-0.2-0.1c-0.2-0.1-0.5-0.1-0.8-0.1s-0.7,0-1.1,0.1c0,1,0,2,0,2.7c0.6,0,1.3-0.1,1.9-0.1c0,0.9,0,1.9,0,2.8
				c-0.6,0.1-1.3,0.1-1.9,0.2c0,0.8,0,1.2,0,2c0,0.3,0.1,0.6,0.1,0.8c0.1,0.2,0.2,0.4,0.3,0.5c0.2,0.1,0.4,0.1,0.7,0.1
				c0,1,0,1.5,0,2.5c-1,0-1.8,0.1-2.5,0.2s-1.7,0.4-2.8,0.8c0-1.1,0-1.6,0-2.7c0.3-0.1,0.5-0.2,0.7-0.3c0.2-0.2,0.3-0.4,0.3-0.7
				c0.1-0.3,0.1-0.6,0.1-1c0.1-0.9,0.1-1.6-0.1-2.1c-0.1-0.5-0.5-0.9-1.1-1.3c0.5-0.4,0.8-0.7,1-1.2c0.2-0.4,0.3-1,0.2-1.7
				c0-0.5,0-0.8-0.1-1.1c0-0.3-0.1-0.5-0.3-0.7c0,0-0.3,0-0.7,0c0-1.1,0-1.6,0-2.7c0.6,0.1,1.5,0.2,2.5,0.3s2.1,0.1,3.2,0.1
				s2.2-0.2,3.1-0.4C24.5,10,24.5,10.7,24.5,11.2z"/>
		</g>
		<g>
			<path class="st0" d="M26.4,15c0.2-0.4,0.3-0.9,0.2-1.5c0-0.5,0-0.9,0-1.1c0-0.3-0.1-0.4-0.2-0.5s-0.4-0.1-0.8-0.1
				c0-1,0-1.4,0-2.4c1.6,0.4,3.2,0.3,4.8,0c0,0.9,0,1.4,0,2.3c-0.2,0-0.4,0-0.5,0.1c-0.1,0-0.2,0.1-0.3,0.2
				c-0.1,0.1-0.1,0.2-0.1,0.3s0,0.3,0,0.5s0,0.4,0,0.7c0,0.6,0,1.1,0.2,1.4c0.2,0.3,0.5,0.6,1,0.9c-0.5,0.4-0.9,0.7-1.1,1.2
				c-0.2,0.4-0.3,0.9-0.2,1.4c0,0.5,0.1,1,0.1,1.6c0.5,0,0.8-0.1,1.3-0.1c0.3,0,0.5,0,0.6-0.1c0.1,0,0.2-0.1,0.2-0.2
				s0.1-0.3,0.2-0.7c0.1-0.3,0.2-0.6,0.3-0.9c0.8,0,1.5-0.1,2.3-0.1c-0.3,1.5-0.4,3-0.3,4.4c-1.3-0.1-2.7-0.1-4.1,0.1
				c-1.4,0.1-2.7,0.4-4.1,0.9c0.2-1.4,0.4-2.7,0.5-4.1c0-0.5,0.1-0.9,0-1.3c0-0.4-0.1-0.7-0.3-1c-0.2-0.3-0.5-0.6-1-0.8
				C25.8,15.7,26.2,15.3,26.4,15z"/>
		</g>
		<g>
			<path class="st0" d="M43.7,9.8c0.7,0.3,1.3,0.8,1.8,1.4c0.6,0.7,1,1.7,1.2,2.8c0.1,0.4,0.2,0.8,0.4,1s0.5,0.4,0.9,0.6
				c-0.4,0.2-0.7,0.5-0.9,0.8s-0.4,0.7-0.5,1.1c-0.2,0.9-0.6,1.6-1.1,2.2s-1.1,1.1-1.8,1.4c-0.7,0.4-1.4,0.5-2.2,0.6
				c-0.8,0-1.5-0.1-2.2-0.4S38,20.6,37.5,20c-0.4-0.5-0.7-1.1-1-1.8c-0.1-0.4-0.2-0.8-0.3-1c-0.1-0.3-0.2-0.5-0.4-0.7
				s-0.5-0.4-0.9-0.6c0.3-0.2,0.6-0.4,0.8-0.7s0.4-0.6,0.4-1c0.2-1.3,0.6-2.3,1.2-3.1c0.5-0.6,1.1-1.1,1.8-1.4
				c0.7-0.3,1.4-0.5,2.2-0.5C42.3,9.3,43.1,9.5,43.7,9.8z M43,15.2c0.2-0.1,0.3-0.3,0.4-0.5c0.1-0.2,0.1-0.5,0-0.8
				c-0.2-0.8-0.4-1.4-0.8-1.8c-0.3-0.4-0.7-0.6-1.1-0.6c-0.4,0-0.8,0.3-1.2,0.7s-0.6,1.1-0.8,1.9c-0.1,0.5,0,0.8,0.1,1
				c0.2,0.2,0.5,0.4,0.9,0.5c-0.3,0.2-0.6,0.3-0.7,0.4c-0.2,0.1-0.3,0.3-0.3,0.4c-0.1,0.2,0,0.5,0,0.8c0.2,1.1,0.6,1.9,1.1,2.2
				c0.5,0.4,1,0.3,1.6,0c0.5-0.4,0.9-1.1,1.2-2.2c0.1-0.4,0.1-0.7,0-0.9c-0.1-0.2-0.2-0.4-0.4-0.5s-0.4-0.3-0.8-0.4
				C42.6,15.4,42.8,15.3,43,15.2z"/>
		</g>
		<g>
			<path class="st0" d="M53.8,18.5c0.3,0.3,0.7,0.4,1,0.6c1.2,0.4,2.4,0,3.5-1c0.4,0.8,0.6,1.2,1,2c-1.1,0.9-2.2,1.4-3.3,1.6
				s-2,0.1-2.9-0.2c-0.9-0.3-1.6-0.9-2.2-1.6c-0.6-0.7-1-1.5-1.3-2.5c-0.1-0.4-0.2-0.7-0.2-0.8c-0.1-0.1-0.1-0.2-0.3-0.3
				c-0.1-0.1-0.4-0.2-0.8-0.4c0.4-0.2,0.7-0.4,0.8-0.4c0.1-0.1,0.2-0.2,0.2-0.3s0.1-0.4,0.1-0.9c0.1-0.6,0.3-1.3,0.7-1.9
				c0.5-0.9,1.1-1.6,1.9-2c0.7-0.5,1.5-0.7,2.3-0.7s1.6,0.2,2.4,0.6c0.2,0.1,0.3,0.1,0.4,0.2c0.1,0,0.2,0,0.2-0.1s0.1-0.2,0.1-0.4
				c0.8,0,1.2,0,2.1,0c0,1.8,0,2.6,0,4.4c-0.8,0-1.2,0-2.1,0c-0.2-0.6-0.4-1.1-0.7-1.4c-0.3-0.3-0.7-0.5-1.1-0.5
				c-0.4,0-0.8,0-1.1,0.2c-0.8,0.3-1.3,1-1.6,1.9c-0.1,0.2-0.1,0.4-0.1,0.5s0,0.3,0,0.4c0,0.1,0.1,0.2,0.2,0.2
				c0.1,0.1,0.2,0.1,0.3,0.2s0.3,0.1,0.4,0.2c0.2,0.1,0.3,0.2,0.5,0.3c-0.2,0.1-0.4,0.2-0.6,0.3c-0.2,0.1-0.3,0.1-0.5,0.2
				C53,17,52.9,17,52.8,17.1s-0.1,0.2-0.1,0.4c0,0.1,0.1,0.3,0.2,0.6C53.3,17.9,53.5,18.2,53.8,18.5z"/>
		</g>
		<g>
			<path class="st0" d="M61.4,14.6c0.2-0.3,0.3-0.8,0.2-1.4c0-0.3,0-0.5-0.1-0.7c0-0.2-0.1-0.4-0.1-0.5c-0.1-0.1-0.2-0.3-0.3-0.3
				c-0.2-0.1-0.4-0.1-0.7-0.1c0-0.7,0-1.5,0-2.2c0.9,0.2,1.8,0.3,2.6,0.3c0.9,0,1.7-0.1,2.5-0.3c0,0.8,0,1.5,0,2.3
				c-0.4,0-0.6,0-0.8,0.2c-0.2,0.1-0.3,0.3-0.3,0.5s0,0.8,0,1.8c0.6-0.7,1.3-1.3,1.9-2c0.2-0.2,0.2-0.3,0.2-0.4
				c0-0.1-0.1-0.1-0.4-0.1c0-0.8,0-1.5,0-2.3c1.4,0.3,2.8,0.3,4.2,0c0,0.8,0,1.6,0,2.4c-0.4,0-0.7,0-1,0.2c-0.2,0.1-0.5,0.3-0.7,0.6
				c-0.8,1-1.6,1.9-2.4,2.8c0.9,0.3,1.7,0.8,2.2,1.6c0.5,0.7,0.9,1.7,1.2,2.8c0,0.2,0.1,0.3,0.1,0.5c0,0.1,0.1,0.2,0.1,0.3
				c0.1,0.1,0.1,0.1,0.2,0.2c0.1,0,0.2,0.1,0.4,0.1c0,0.8,0,1.6,0,2.4c-1.4-0.5-2.8-0.6-4.2-0.5c0-0.8,0-1.5,0-2.3
				c0.1,0,0.2,0,0.3,0c0.1,0,0.1-0.1,0.1-0.2s0-0.2,0-0.3c0-0.1,0-0.2-0.1-0.3c-0.1-0.6-0.4-1-0.7-1.4c-0.3-0.3-0.9-0.5-1.5-0.6l0,0
				c0,1,0,1.6,0,1.8c0,0.3,0.1,0.5,0.3,0.6c0.1,0.1,0.4,0.2,0.8,0.3c0,0.8,0,1.5,0,2.3c-1.7-0.5-3.4-0.7-5.1-0.5c0-0.7,0-1.5,0-2.2
				c0.4,0,0.6,0,0.8-0.1c0.1-0.1,0.2-0.3,0.3-0.5c0-0.2,0.1-0.5,0.1-0.8s0.1-0.6,0.1-0.9s0-0.5-0.1-0.8c-0.1-0.2-0.2-0.5-0.4-0.7
				s-0.5-0.4-0.8-0.6C60.8,15.2,61.2,14.9,61.4,14.6z"/>
		</g>
		<g>
			<path class="st0" d="M78.3,18.1c0.1,0.6,0.3,1.1,0.5,1.6c0.3,0.5,0.6,0.8,1,1.1c0.4,0.3,1,0.5,1.6,0.6c0,0.9,0,2.1,0,3.6
				c-1-0.2-1.8-0.4-2.5-0.7c-0.6-0.3-1.1-0.7-1.5-1.2s-0.6-1.1-0.8-1.9c-0.2-0.8-0.3-1.7-0.4-2.7c-0.4,0-0.6,0-1,0.1
				c0,1.4,0,1.9,0,1.7c0,0.1,0,0.2,0,0.3c0,0.1,0,0.2,0.1,0.2c0,0.1,0.1,0.1,0.1,0.2s0.1,0.1,0.1,0.2c0.1,0,0.1,0.1,0.2,0.1
				s0.2,0.1,0.2,0.1c0.1,0,0.2,0,0.3,0.1c0,1,0,1.5,0,2.6c-1.7-0.7-3.4-0.9-5.1-0.8c0-1,0-1.4,0-2.4c0.3,0,0.5,0,0.6,0
				c0.1-0.1,0.3-0.1,0.3-0.3c0.1-0.1,0.1-0.3,0.1-0.5s0-0.4,0-0.7c0-0.5,0.1-0.9,0-1.3c0-0.4-0.1-0.7-0.3-1.1c-0.2-0.3-0.5-0.6-1-1
				c0.5-0.2,0.8-0.5,1-0.9c0.2-0.3,0.3-0.9,0.2-1.5c0-0.4,0-0.7-0.1-1c0-0.3-0.1-0.5-0.3-0.6c-0.1-0.2-0.4-0.2-0.8-0.2
				c0-1,0-1.4,0-2.4c2.6,0,3.9,0,6.4,0c0.6,0,1.2,0.2,1.6,0.6c0.5,0.4,0.8,0.9,1.1,1.5c0.3,0.6,0.5,1.3,0.5,2c0.1,0.7,0,1.4-0.1,2.1
				c-0.2,0.7-0.5,1.2-0.9,1.7C79.6,17.7,79,18,78.3,18.1z M75.3,16.2c0.4,0,0.9,0,1.3,0c0.4-0.1,0.7-0.2,1-0.5
				c0.2-0.3,0.4-0.8,0.3-1.5c0-0.8-0.3-1.4-0.7-1.8c-0.4-0.4-0.8-0.6-1.2-0.5c-0.4,0.1-0.7,0.5-0.7,1.1
				C75.2,13.3,75.3,14.4,75.3,16.2z"/>
		</g>
	</g>
</g>
<g>
	<g>
		<path class="st1" d="M0,0c2.3,0.6,3.6,2.2,4.1,4.4C4.4,5.7,4.4,7,4.3,8.3c-0.3,4.6,1.3,6.6,5.9,7.1c0.9,0.1,1.8,0.2,2.6,0.1
			c1.6-0.2,1.8,0.8,1.9,2c0.1,1.2,0,2.2-1.6,2.3C10.5,20,8,19.7,5.6,18.6c-3.4-1.6-4.9-4.3-4.7-8.1C1.1,9.2,1.3,8,1.5,6.8
			C1.8,4.4,1.5,2.1,0,0z"/>
		<path class="st1" d="M97.1,0c-2.3,0.6-3.6,2.2-4.1,4.4c-0.3,1.3-0.3,2.6-0.2,3.9c0.3,4.6-1.3,6.6-5.9,7.1
			c-0.9,0.1-1.8,0.2-2.6,0.1c-1.6-0.2-1.8,0.8-1.9,2s0,2.2,1.6,2.3c2.6,0.2,5.1-0.1,7.5-1.2c3.4-1.6,4.9-4.3,4.7-8.1
			C96,9.2,95.8,8,95.6,6.8C95.3,4.4,95.6,2.1,97.1,0z"/>
	</g>
</g>
</svg>
